#!OML:ASF H:\Swim 2\Project 1\Capture day 1\Session 1\male.ASF
:FULLY-SPECIFIED
:DEGREES
1365
root 1.32851 12.8145 9.90446 72.6171 -3.09298 -3.19585
lowerback -3.12393 2.02652 -7.35091
upperback -5.33726 3.0511 7.01916
thorax -4.68677 2.08266 11.7076
lowerneck -22.9762 -2.11718 -8.10167
upperneck 37.1448 0.502842 -0.354865
head 17.6425 -0.995447 1.37198
rclavicle -4.77083e-015 8.11041e-014
rhumerus 61.4276 11.6082 -13.05
rradius 43.29
rwrist -35.2133
rhand -20.7076 -2.44469
rfingers 7.12502
rthumb 5.65671 -32.3492
lclavicle -4.77083e-015 8.11041e-014
lhumerus 62.86 -10.2904 44.6045
lradius 27.8803
lwrist 29.4227
lhand -35.955 -5.3746
lfingers 7.12502
lthumb -9.06642 24.4105
rfemur -55.4925 9.37766 15.8515
rtibia 64.1801
rfoot 45.4673 16.7779
rtoes 18.7001
lfemur -59.6933 -1.84882 -23.533
ltibia 80.7527
lfoot 28.1584 -9.74202
ltoes 37.567
1366
root 1.32755 12.8182 9.87624 71.8512 -3.17759 -3.18772
lowerback -2.4094 2.07215 -7.4202
upperback -5.17004 3.07632 7.05328
thorax -4.92782 2.10351 11.7627
lowerneck -23.1432 -2.08469 -8.18796
upperneck 36.9079 0.507402 -0.132993
head 17.5503 -0.968131 1.48745
rclavicle -1.27222e-014 -5.96354e-014
rhumerus 60.3427 12.0747 -14.2695
rradius 43.5144
rwrist -34.5191
rhand -20.6008 -2.51198
rfingers 7.12502
rthumb 5.75973 -32.4137
lclavicle -1.27222e-014 -5.96354e-014
lhumerus 61.6578 -11.1599 43.1489
lradius 29.0647
lwrist 31.4801
lhand -36.2406 -5.16783
lfingers 7.12502
lthumb -9.34193 24.6052
rfemur -55.4874 9.07471 15.9305
rtibia 64.9975
rfoot 45.3666 16.9527
rtoes 17.4505
lfemur -59.8054 -1.66198 -23.5403
ltibia 81.7418
lfoot 27.8843 -10.0132
ltoes 37.7052
1367
root 1.32702 12.8224 9.84811 71.0989 -3.27282 -3.16701
lowerback -1.71117 2.11657 -7.49728
upperback -5.01345 3.09978 7.08142
thorax -5.17178 2.12446 11.8171
lowerneck -23.2481 -2.05293 -8.27034
upperneck 36.5952 0.50523 0.0772477
head 17.4028 -0.941236 1.59414
rclavicle -6.20208e-014 0
rhumerus 59.1694 12.5431 -15.684
rradius 43.7665
rwrist -33.9003
rhand -20.3999 -2.6095
rfingers 7.12502
rthumb 5.95373 -32.5058
lclavicle -6.20208e-014 0
lhumerus 60.4744 -12.073 41.8613
lradius 30.2167
lwrist 33.391
lhand -36.4285 -5.04942
lfingers 7.12502
lthumb -9.52326 24.7154
rfemur -55.4926 8.74884 15.9819
rtibia 65.819
rfoot 45.2639 17.1324
rtoes 16.196
lfemur -59.8906 -1.48173 -23.5586
ltibia 82.6732
lfoot 27.5757 -10.2546
ltoes 37.8505
1368
root 1.3269 12.8267 9.81958 70.3693 -3.37383 -3.13634
lowerback -1.02939 2.15885 -7.57438
upperback -4.87469 3.12039 7.10451
thorax -5.42541 2.14538 11.8671
lowerneck -23.3173 -2.02721 -8.36774
upperneck 36.2415 0.495777 0.288842
head 17.2268 -0.917126 1.70105
rclavicle -2.70347e-014 -1.35174e-014
rhumerus 57.9213 12.9986 -17.1877
rradius 44.0794
rwrist -33.4395
rhand -20.1155 -2.72649
rfingers 7.12502
rthumb 6.22835 -32.6149
lclavicle -2.70347e-014 -1.35174e-014
lhumerus 59.2929 -13.0172 40.7876
lradius 31.3091
lwrist 35.0183
lhand -36.5218 -5.05984
lfingers 7.12502
lthumb -9.61326 24.7008
rfemur -55.5187 8.40113 16.01
rtibia 66.6471
rfoot 45.1637 17.3127
rtoes 14.9492
lfemur -59.9627 -1.30204 -23.5843
ltibia 83.5506
lfoot 27.2227 -10.4609
ltoes 37.9762
1369
root 1.3272 12.8312 9.7906 69.6743 -3.47562 -3.10147
lowerback -0.378403 2.19872 -7.64514
upperback -4.75302 3.13867 7.12393
thorax -5.67935 2.16574 11.9109
lowerneck -23.3659 -2.00698 -8.4802
upperneck 35.8617 0.48206 0.502133
head 17.0348 -0.895155 1.80894
rclavicle -4.77083e-014 1.51076e-014
rhumerus 56.6286 13.421 -18.6544
rradius 44.4642
rwrist -33.1745
rhand -19.7602 -2.84059
rfingers 7.12502
rthumb 6.5713 -32.7186
lclavicle -4.77083e-014 1.51076e-014
lhumerus 58.1045 -13.9819 39.9286
lradius 32.3373
lwrist 36.2883
lhand -36.5507 -5.16391
lfingers 7.12502
lthumb -9.64121 24.5955
rfemur -55.5788 8.0377 16.02
rtibia 67.4803
rfoot 45.0582 17.4951
rtoes 13.7388
lfemur -60.0322 -1.11719 -23.6103
ltibia 84.3747
lfoot 26.852 -10.6394
ltoes 38.0936
1370
root 1.32777 12.8352 9.76019 69.0266 -3.57607 -3.06748
lowerback 0.230557 2.2366 -7.71143
upperback -4.65486 3.15633 7.144
thorax -5.93496 2.18714 11.9549
lowerneck -23.4272 -2.00626 -8.6223
upperneck 35.5024 0.457225 0.711661
head 16.8605 -0.882618 1.91707
rclavicle -5.88403e-014 2.38542e-015
rhumerus 55.3277 13.8121 -19.9872
rradius 44.9091
rwrist -33.0936
rhand -19.371 -2.92944
rfingers 7.12502
rthumb 6.94705 -32.7954
lclavicle -5.88403e-014 2.38542e-015
lhumerus 56.8935 -14.9774 39.271
lradius 33.3047
lwrist 37.191
lhand -36.5803 -5.31396
lfingers 7.12502
lthumb -9.66975 24.4441
rfemur -55.6927 7.66465 16.015
rtibia 68.3233
rfoot 44.9563 17.6774
rtoes 12.5564
lfemur -60.1202 -0.919179 -23.6329
ltibia 85.1537
lfoot 26.4735 -10.796
ltoes 38.2397
1371
root 1.3286 12.839 9.72915 68.43 -3.67424 -3.0401
lowerback 0.788135 2.27108 -7.76909
upperback -4.57572 3.17212 7.16582
thorax -6.18127 2.20791 11.9981
lowerneck -23.5294 -2.02837 -8.78055
upperneck 35.1967 0.420002 0.903878
head 16.7274 -0.881493 2.01764
rclavicle -3.81667e-014 -7.95139e-016
rhumerus 54.0505 14.1765 -21.1697
rradius 45.3881
rwrist -33.105
rhand -18.9726 -3.00286
rfingers 7.12502
rthumb 7.33165 -32.8558
lclavicle -3.81667e-014 -7.95139e-016
lhumerus 55.6484 -15.9982 38.7911
lradius 34.2229
lwrist 37.7865
lhand -36.6414 -5.46982
lfingers 7.12502
lthumb -9.72864 24.2855
rfemur -55.8621 7.29097 15.997
rtibia 69.1692
rfoot 44.8485 17.8542
rtoes 11.4175
lfemur -60.2251 -0.705819 -23.6479
ltibia 85.8869
lfoot 26.0891 -10.9435
ltoes 38.4121
1372
root 1.32923 12.8421 9.69723 67.873 -3.79393 -3.0248
lowerback 1.2994 2.31083 -7.84748
upperback -4.51185 3.19655 7.18639
thorax -6.42193 2.2349 12.0538
lowerneck -23.6147 -2.0601 -8.95057
upperneck 34.8881 0.381241 1.07457
head 16.591 -0.885125 2.10954
rclavicle 5.24792e-014 -2.8625e-014
rhumerus 52.8124 14.5258 -22.1675
rradius 45.8771
rwrist -33.1692
rhand -18.5635 -3.10001
rfingers 7.12502
rthumb 7.72645 -32.9389
lclavicle 5.24792e-014 -2.8625e-014
lhumerus 54.3693 -17.071 38.4305
lradius 35.1266
lwrist 38.2096
lhand -36.7832 -5.56274
lfingers 7.12502
lthumb -9.86548 24.1861
rfemur -56.0747 6.93268 15.949
rtibia 70.0172
rfoot 44.7475 18.0363
rtoes 10.2867
lfemur -60.3277 -0.457182 -23.6762
ltibia 86.5754
lfoot 25.6837 -11.0969
ltoes 38.6239
1373
root 1.33 12.8448 9.66503 67.3617 -3.90773 -3.02257
lowerback 1.75858 2.34633 -7.90632
upperback -4.46065 3.2186 7.21143
thorax -6.645 2.25969 12.1048
lowerneck -23.6974 -2.09025 -9.1265
upperneck 34.5704 0.359619 1.21512
head 16.4505 -0.88637 2.19179
rclavicle 1.27222e-014 -7.95139e-015
rhumerus 51.59 14.8884 -23.1447
rradius 46.3484
rwrist -33.1169
rhand -18.1767 -3.18415
rfingers 7.12502
rthumb 8.09984 -33.0089
lclavicle 1.27222e-014 -7.95139e-015
lhumerus 53.0565 -18.1944 38.1017
lradius 36.0568
lwrist 38.6392
lhand -37.028 -5.52326
lfingers 7.12502
lthumb -10.1016 24.2143
rfemur -56.3281 6.58556 15.8965
rtibia 70.8572
rfoot 44.6427 18.2142
rtoes 9.17408
lfemur -60.4394 -0.189211 -23.689
ltibia 87.2247
lfoot 25.2459 -11.2606
ltoes 38.8359
1374
root 1.33072 12.8474 9.63263 66.875 -4.02829 -3.03698
lowerback 2.18713 2.38085 -7.95515
upperback -4.41311 3.24104 7.23718
thorax -6.85413 2.28373 12.1516
lowerneck -23.785 -2.12018 -9.31991
upperneck 34.2324 0.345256 1.35946
head 16.302 -0.885364 2.27918
rclavicle 1.27222e-014 -3.26007e-014
rhumerus 50.3871 15.2693 -24.1039
rradius 46.8011
rwrist -32.9646
rhand -17.8387 -3.26497
rfingers 7.12502
rthumb 8.42596 -33.0769
lclavicle 1.27222e-014 -3.26007e-014
lhumerus 51.7136 -19.3728 37.7555
lradius 37.0508
lwrist 39.2264
lhand -37.3593 -5.35211
lfingers 7.12502
lthumb -10.4212 24.3696
rfemur -56.5955 6.25922 15.8331
rtibia 71.6856
rfoot 44.5336 18.3913
rtoes 8.07709
lfemur -60.5301 0.107102 -23.6969
ltibia 87.8347
lfoot 24.7553 -11.4407
ltoes 39.0018
1375
root 1.33136 12.8498 9.60037 66.4117 -4.1547 -3.06835
lowerback 2.58092 2.41712 -7.9945
upperback -4.36986 3.26789 7.26108
thorax -7.04847 2.3089 12.1912
lowerneck -23.8381 -2.16474 -9.56765
upperneck 33.839 0.305378 1.56244
head 16.1212 -0.890577 2.39442
rclavicle -3.18055e-015 5.32743e-014
rhumerus 49.1742 15.6726 -25.0494
rradius 47.2299
rwrist -32.7558
rhand -17.5621 -3.1084
rfingers 7.12502
rthumb 8.69291 -32.9094
lclavicle -3.18055e-015 5.32743e-014
lhumerus 50.3593 -20.6169 37.3621
lradius 38.1386
lwrist 40.0682
lhand -37.7661 -5.04127
lfingers 7.12502
lthumb -10.8137 24.6603
rfemur -56.8729 5.95693 15.7602
rtibia 72.4985
rfoot 44.428 18.5685
rtoes 6.99955
lfemur -60.5962 0.428917 -23.6973
ltibia 88.4084
lfoot 24.1947 -11.6387
ltoes 39.116
